<mxfile host="app.diagrams.net" modified="2020-07-30T22:02:27.826Z" agent="5.0 (Windows NT 10.0; Win64; x64) AppleWebKit/537.36 (KHTML, like Gecko) Chrome/84.0.4147.105 Safari/537.36" etag="4-_imNKSuYmQKezPabXz" version="13.5.7" type="github">
  <diagram name="Page-1" id="e7e014a7-5840-1c2e-5031-d8a46d1fe8dd">
    <mxGraphModel dx="868" dy="1276" grid="1" gridSize="10" guides="1" tooltips="1" connect="1" arrows="1" fold="1" page="1" pageScale="1" pageWidth="1169" pageHeight="826" background="#ffffff" math="0" shadow="0">
      <root>
        <mxCell id="0" />
        <mxCell id="1" parent="0" />
        <mxCell id="CfHUTmMDXojyd9d-3PEy-59" style="edgeStyle=orthogonalEdgeStyle;rounded=0;orthogonalLoop=1;jettySize=auto;html=1;entryX=0.12;entryY=0.5;entryDx=0;entryDy=0;entryPerimeter=0;" edge="1" parent="1" source="CfHUTmMDXojyd9d-3PEy-47" target="CfHUTmMDXojyd9d-3PEy-48">
          <mxGeometry relative="1" as="geometry" />
        </mxCell>
        <mxCell id="CfHUTmMDXojyd9d-3PEy-47" value="Controller&#xa;" style="shape=module;align=left;spacingLeft=20;align=center;verticalAlign=top;" vertex="1" parent="1">
          <mxGeometry x="150" y="-370" width="100" height="50" as="geometry" />
        </mxCell>
        <mxCell id="CfHUTmMDXojyd9d-3PEy-48" value="Interface" style="shape=module;align=left;spacingLeft=20;align=center;verticalAlign=top;" vertex="1" parent="1">
          <mxGeometry x="470" y="-370" width="100" height="50" as="geometry" />
        </mxCell>
        <mxCell id="CfHUTmMDXojyd9d-3PEy-60" style="edgeStyle=orthogonalEdgeStyle;rounded=0;orthogonalLoop=1;jettySize=auto;html=1;entryX=0.5;entryY=1;entryDx=0;entryDy=0;" edge="1" parent="1" source="CfHUTmMDXojyd9d-3PEy-49" target="CfHUTmMDXojyd9d-3PEy-48">
          <mxGeometry relative="1" as="geometry" />
        </mxCell>
        <mxCell id="CfHUTmMDXojyd9d-3PEy-49" value="Repository" style="shape=module;align=left;spacingLeft=20;align=center;verticalAlign=top;" vertex="1" parent="1">
          <mxGeometry x="470" y="-260" width="100" height="50" as="geometry" />
        </mxCell>
        <mxCell id="CfHUTmMDXojyd9d-3PEy-57" style="edgeStyle=orthogonalEdgeStyle;rounded=0;orthogonalLoop=1;jettySize=auto;html=1;entryX=0.5;entryY=1;entryDx=0;entryDy=0;" edge="1" parent="1" source="CfHUTmMDXojyd9d-3PEy-50" target="CfHUTmMDXojyd9d-3PEy-47">
          <mxGeometry relative="1" as="geometry" />
        </mxCell>
        <mxCell id="CfHUTmMDXojyd9d-3PEy-50" value="View Screen&#xa;" style="shape=module;align=left;spacingLeft=20;align=center;verticalAlign=top;" vertex="1" parent="1">
          <mxGeometry x="70" y="-250" width="100" height="50" as="geometry" />
        </mxCell>
        <mxCell id="CfHUTmMDXojyd9d-3PEy-58" style="edgeStyle=orthogonalEdgeStyle;rounded=0;orthogonalLoop=1;jettySize=auto;html=1;entryX=0.5;entryY=1;entryDx=0;entryDy=0;" edge="1" parent="1" source="CfHUTmMDXojyd9d-3PEy-51" target="CfHUTmMDXojyd9d-3PEy-47">
          <mxGeometry relative="1" as="geometry" />
        </mxCell>
        <mxCell id="CfHUTmMDXojyd9d-3PEy-51" value="View Print&#xa;" style="shape=module;align=left;spacingLeft=20;align=center;verticalAlign=top;" vertex="1" parent="1">
          <mxGeometry x="240" y="-250" width="100" height="50" as="geometry" />
        </mxCell>
        <mxCell id="CfHUTmMDXojyd9d-3PEy-56" style="edgeStyle=orthogonalEdgeStyle;rounded=0;orthogonalLoop=1;jettySize=auto;html=1;entryX=0.5;entryY=1;entryDx=0;entryDy=0;" edge="1" parent="1" source="CfHUTmMDXojyd9d-3PEy-52" target="CfHUTmMDXojyd9d-3PEy-51">
          <mxGeometry relative="1" as="geometry" />
        </mxCell>
        <mxCell id="CfHUTmMDXojyd9d-3PEy-52" value="Page PDF" style="shape=module;align=left;spacingLeft=20;align=center;verticalAlign=top;" vertex="1" parent="1">
          <mxGeometry x="240" y="-129" width="100" height="50" as="geometry" />
        </mxCell>
        <mxCell id="CfHUTmMDXojyd9d-3PEy-55" style="edgeStyle=orthogonalEdgeStyle;rounded=0;orthogonalLoop=1;jettySize=auto;html=1;entryX=0.5;entryY=1;entryDx=0;entryDy=0;" edge="1" parent="1" source="CfHUTmMDXojyd9d-3PEy-53" target="CfHUTmMDXojyd9d-3PEy-50">
          <mxGeometry relative="1" as="geometry" />
        </mxCell>
        <mxCell id="CfHUTmMDXojyd9d-3PEy-53" value="Page Web&#xa;" style="shape=module;align=left;spacingLeft=20;align=center;verticalAlign=top;" vertex="1" parent="1">
          <mxGeometry x="70" y="-130" width="100" height="50" as="geometry" />
        </mxCell>
      </root>
    </mxGraphModel>
  </diagram>
</mxfile>
